# AST/ASF file generated using VICON BodyLanguage
# -----------------------------------------------
:version 1.10
:name VICON
:units
  mass 1.0
  length 0.45
  angle deg
:documentation
   .ast/.asf automatically generated from VICON data using
   VICON BodyBuilder and BodyLanguage model FoxedUp or BRILLIANT.MOD
:root
   order TX TY TZ RX RY RZ
   axis XYZ
   position 0 0 0  
   orientation 0 0 0 
:bonedata
  begin
     id 1 
     name lhipjoint
     direction 0.722297 -0.617336 0.311742 
     length 2.6635 
     axis 0 0 0  XYZ
  end
  begin
     id 2 
     name lfemur
     direction 0.34202 -0.939693 0  
     length 7.39349  
     axis 0 0 20  XYZ
    dof rx ry rz
    limits (-160.0 20.0)
           (-70.0 70.0)
           (-60.0 70.0)
  end
  begin
     id 3 
     name ltibia
     direction 0.34202 -0.939693 0   
     length 7.36294   
     axis 0 0 20   XYZ
    dof rx
    limits (-10.0 170.0)
  end
  begin
     id 4 
     name lfoot
     direction 0.104879 -0.288152 0.951824   
     length 2.16981   
     axis -90 7.62852e-016 20   XYZ
    dof rx rz
    limits (-45.0 90.0)
           (-70.0 20.0)
  end
  begin
     id 5 
     name ltoes
     direction 1.53586e-011 -4.21895e-011 1   
     length 1.08218   
     axis -90 7.62852e-016 20   XYZ
    dof rx
    limits (-90.0 20.0)
  end
  begin
     id 6 
     name rhipjoint
     direction -0.75102 -0.589393 0.297631   
     length 2.78977  
     axis 0 0 0  XYZ 
  end
  begin
     id 7 
     name rfemur
     direction -0.34202 -0.939693 0   
     length 7.46076   
     axis 0 0 -20   XYZ
    dof rx ry rz
    limits (-160.0 20.0)
           (-70.0 70.0)
           (-70.0 60.0)
  end
  begin
     id 8 
     name rtibia
     direction -0.34202 -0.939693 0   
     length 7.31726   
     axis 0 0 -20   XYZ
    dof rx
    limits (-10.0 170.0)
 end
 begin
     id 9 
     name rfoot
     direction -0.107991 -0.296704 0.948844   
     length 2.09388  
     axis -90 -7.62852e-016 -20   XYZ
    dof rx rz
    limits (-45.0 90.0)
           (-20.0 70.0)
  end
  begin
     id 10 
     name rtoes
     direction -1.53559e-011 -4.21911e-011 1   
     length 1.04433   
     axis -90 -7.62852e-016 -20   XYZ
    dof rx
    limits (-90.0 20.0)
  end
  begin
     id 11 
     name lowerback
     direction 0.0165164 0.98272 0.184358   
     length 1.71896   
     axis 0 0 0   XYZ
    dof rx ry rz
    limits (-20.0 45.0)
           (-30.0 30.0)
           (-30.0 30.0)
  end
  begin
     id 12 
     name upperback
     direction -0.00887249 0.992297 0.123566   
     length 1.71504   
     axis 0 0 0   XYZ
    dof rx ry rz
    limits (-20.0 45.0)
           (-30.0 30.0)
           (-30.0 30.0)
  end
  begin
     id 13 
     name thorax
     direction -0.0157026 0.998908 0.0440032   
     length 1.77022   
     axis 0 0 0   XYZ
    dof rx ry rz
    limits (-20.0 45.0)
           (-30.0 30.0)
           (-30.0 30.0)
  end
  begin
     id 14 
     name lowerneck
     direction -0.0238856 0.998137 0.0561411   
     length 1.89341   
     axis 0 0 0   XYZ
    dof rx ry rz
    limits (-20.0 45.0)
           (-30.0 30.0)
           (-30.0 30.0)
  end
  begin
     id 15 
     name upperneck
     direction 0.0276574 0.952253 -0.304056   
     length 1.86999   
     axis 0 0 0   XYZ
    dof rx ry rz
    limits (-20.0 45.0)
           (-30.0 30.0)
           (-30.0 30.0)
  end
  begin
     id 16
     name head
     direction 0.00800083 0.994258 -0.106712  
     length 1.91492  
     axis 0 0 0   XYZ
    dof rx ry rz
    limits (-20.0 45.0)
           (-30.0 30.0)
           (-30.0 30.0)
  end
  begin
     id 17 
     name lclavicle
     direction 0.97203 0.225407 0.06595  
     length 3.34889  
     axis 0 0 0   XYZ
    dof ry rz
    limits (-20.0 10.0)
           (0.0 20.0)
  end
  begin
     id 18 
     name lhumerus
     direction 1 -4.48973e-011 2.20267e-027   
     length 4.85645   
     axis 180 -30 -90   XYZ
    dof rx ry rz
    limits (-60.0 90.0)
           (-90.0 90.0)
           (-90.0 90.0)
  end
  begin
     id 19
     name lradius
     direction 1 -4.4897e-011 4.60472e-027   
     length 2.79874   
     axis 180 -30 -90   XYZ
    dof rx
    limits (-10.0 170.0)
  end
  begin
     id 20
     name lwrist
     direction 1 -4.48952e-011 1.14928e-026   
     length 1.39937   
     axis -6.29373e-015 90 90   XYZ
    dof ry
    limits (-180.0 0.0)
 end
  begin
     id 21 
     name lhand
     direction 1 -4.48967e-011 2.29886e-026   
     length 0.573398   
     axis -1.46689e-014 90 90   XYZ
    dof rx rz
    limits (-90.0 90.0)
           (-45.0 45.0)
  end
  begin
     id 22 
     name lfingers
     direction 1 -4.48955e-011 4.59726e-026   
     length 0.462289   
     axis -2.93383e-014 90 90   XYZ
    dof rx
    limits (0.0 90.0)
  end
  begin
     id 23
     name lthumb
     direction 0.707107 -6.34866e-011 0.707107   
     length 0.663757   
     axis -90 45 5.69224e-014   XYZ
    dof rx rz
    limits (-45.0 45.0)
           (-45.0 45.0)
  end
  begin
     id 24 
     name rclavicle
     direction -0.981571 0.157346 0.108443   
     length 3.35257  
     axis 0 0 0   XYZ 
    dof ry rz
    limits (-10.0 20.0)
           (-20.0 0.0)
  end
  begin
     id 25 
     name rhumerus
     direction -1 -4.48967e-011 8.58308e-029  
     length 4.67018   
     axis 180 30 90   XYZ
    dof rx ry rz
    limits (-90.0 60.0)
           (-90.0 90.0)
           (-90.0 90.0)
  end
  begin
     id 26 
     name rradius
     direction -1 -4.48958e-011 4.52548e-027   
     length 2.65534   
     axis 180 30 90   XYZ
    dof rx
    limits (-10.0 170.0)
  end
  begin
     id 27 
     name rwrist
     direction -1 -4.48977e-011 1.14952e-026   
     length 1.32767   
     axis -6.29373e-015 -90 -90   XYZ
    dof ry
    limits (-180.0 0.0)
  end
  begin
     id 28
     name rhand
     direction -1 -4.48924e-011 2.29804e-026   
     length 0.594069   
     axis -1.46689e-014 -90 -90   XYZ
    dof rx rz
    limits (-90.0 90.0)
           (-45.0 45.0)
  end
  begin
     id 29
     name rfingers
     direction -1 -4.48998e-011 4.59888e-026   
     length 0.478954   
     axis -2.93383e-014 -90 -90   XYZ
    dof rx
    limits (0.0 90.0)
  end
  begin
     id 30
     name rthumb
     direction -0.707107 -6.34933e-011 0.707107   
     length 0.687685   
     axis -90 -45 -5.69224e-014   XYZ
    dof rx rz
    limits (-45.0 45.0)
           (-45.0 45.0)
  end
:hierarchy
  begin
    root lhipjoint rhipjoint lowerback
    lhipjoint lfemur
    lfemur ltibia
    ltibia lfoot
    lfoot ltoes
    rhipjoint rfemur
    rfemur rtibia
    rtibia rfoot
    rfoot rtoes
    lowerback upperback
    upperback thorax
    thorax lowerneck lclavicle rclavicle
    lowerneck upperneck
    upperneck head
    lclavicle lhumerus
    lhumerus lradius
    lradius lwrist
    lwrist lhand lthumb
    lhand lfingers
    rclavicle rhumerus
    rhumerus rradius
    rradius rwrist
    rwrist rhand rthumb
    rhand rfingers
  end

#!OML:ASF E:\pregnant2\Project 1\Capture day 1\Session 1\pregnant2.ASF
:FULLY-SPECIFIED
:DEGREES
1
root 3.98952 16.556 46.1509 -152.341 -8.84398 176.057
lowerback -6.82371 0.253368 -9.16011
upperback -17.5482 -2.90728 4.43383
thorax -15.5851 -1.09853 10.8198
lowerneck 4.33852 19.5211 21.8
upperneck 32.7663 26.706 -7.56679
head 14.9136 12.7783 -2.76648
rclavicle 3.57812e-014 -4.77083e-015
rhumerus -52.6826 12.688 -69.5116
rradius 35.3304
rwrist 8.69994
rhand -6.60672 -15.5867
rfingers 7.12502
rthumb 19.249 -44.6541
lclavicle 3.57812e-014 -4.77083e-015
lhumerus -58.1203 -7.82567 98.1467
lradius 83.3533
lwrist -14.356
lhand 6.41922 26.8005
lfingers 7.12502
lthumb 31.7227 54.0617
rfemur -53.8119 3.46575 11.5921
rtibia 49.8633
rfoot -18.3147 -15.8494
rtoes -0.713466
lfemur -38.1118 -11.544 -26.1232
ltibia 31.0472
lfoot -17.1911 11.6969
ltoes -14.1767
2
root 3.98959 16.5596 46.1196 -152.3 -8.62507 176.075
lowerback -6.81318 0.273358 -9.16411
upperback -17.5472 -2.88998 4.38556
thorax -15.5966 -1.09597 10.7654
lowerneck 3.91997 19.4346 21.6387
upperneck 33.1748 26.4562 -7.43119
head 15.0913 12.6198 -2.71096
rclavicle 2.78299e-015 -2.22639e-014
rhumerus -52.6315 12.5619 -69.451
rradius 35.4688
rwrist 8.49572
rhand -6.33189 -15.6555
rfingers 7.12502
rthumb 19.5133 -44.6963
lclavicle 2.78299e-015 -2.22639e-014
lhumerus -57.9037 -7.8845 98.2766
lradius 83.2475
lwrist -14.0662
lhand 6.346 26.7308
lfingers 7.12502
lthumb 31.653 54.0057
rfemur -54.1572 3.65121 11.4173
rtibia 49.4126
rfoot -18.2113 -15.9062
rtoes -0.629376
lfemur -37.9501 -11.4995 -26.1346
ltibia 30.8758
lfoot -17.1763 11.8921
ltoes -14.2393
3
root 3.99043 16.5649 46.0872 -152.26 -8.45145 176.092
lowerback -6.79507 0.282055 -9.16153
upperback -17.567 -2.8959 4.34047
thorax -15.6346 -1.10485 10.7154
lowerneck 3.44184 19.3344 21.3987
upperneck 33.6985 26.1401 -7.1894
head 15.2934 12.4243 -2.61586
rclavicle -9.54166e-015 -1.11319e-014
rhumerus -52.6263 12.4811 -69.442
rradius 35.5818
rwrist 8.33591
rhand -6.20038 -15.7751
rfingers 7.12502
rthumb 19.6397 -44.8031
lclavicle -9.54166e-015 -1.11319e-014
lhumerus -57.7567 -7.97313 98.4351
lradius 83.1621
lwrist -13.8266
lhand 6.0845 26.6448
lfingers 7.12502
lthumb 31.4038 53.9685
rfemur -54.4632 3.83194 11.2401
rtibia 48.8884
rfoot -18.0375 -16.0265
rtoes -0.546622
lfemur -37.7647 -11.5071 -26.117
ltibia 30.668
lfoot -17.1674 12.0791
ltoes -14.2437
4
root 3.99263 16.5709 46.0519 -152.206 -8.27145 176.104
lowerback -6.80432 0.288985 -9.17717
upperback -17.5874 -2.90416 4.29493
thorax -15.6563 -1.11451 10.6737
lowerneck 2.82792 19.1205 21.0427
upperneck 34.2496 25.6389 -6.97882
head 15.4918 12.1241 -2.5525
rclavicle 7.95139e-015 3.49861e-014
rhumerus -52.5807 12.3348 -69.3994
rradius 35.577
rwrist 8.40704
rhand -6.23557 -15.6968
rfingers 7.12502
rthumb 19.6059 -44.7282
lclavicle 7.95139e-015 3.49861e-014
lhumerus -57.6105 -8.06213 98.5923
lradius 83.0955
lwrist -13.4361
lhand 6.0655 26.6159
lfingers 7.12502
lthumb 31.3857 53.9431
rfemur -54.7972 4.01064 11.0567
rtibia 48.3442
rfoot -17.874 -16.1927
rtoes -0.427495
lfemur -37.585 -11.4667 -26.1191
ltibia 30.4589
lfoot -17.1597 12.2477
ltoes -14.3077
5
root 3.99455 16.5762 46.0172 -152.158 -8.09315 176.121
lowerback -6.80126 0.299357 -9.17738
upperback -17.6071 -2.90773 4.24802
thorax -15.6857 -1.1233 10.6221
lowerneck 2.22424 18.9314 20.6765
upperneck 34.7986 25.1714 -6.74289
head 15.6934 11.8407 -2.47047
rclavicle -1.19271e-014 3.18055e-015
rhumerus -52.5522 12.2075 -69.3667
rradius 35.6143
rwrist 8.3896
rhand -6.20093 -15.6861
rfingers 7.12502
rthumb 19.6392 -44.7141
lclavicle -1.19271e-014 3.18055e-015
lhumerus -57.4498 -8.15548 98.7433
lradius 83.0087
lwrist -13.068
lhand 5.95402 26.4958
lfingers 7.12502
lthumb 31.2795 53.8436
rfemur -55.1024 4.18323 10.8807
rtibia 47.7627
rfoot -17.6636 -16.3371
rtoes -0.231081
lfemur -37.395 -11.4412 -26.1119
ltibia 30.2371
lfoot -17.1439 12.4235
ltoes -14.351
6
root 3.99698 16.5819 45.9816 -152.107 -7.92125 176.139
lowerback -6.79992 0.309407 -9.17209
upperback -17.6305 -2.9131 4.20002
thorax -15.7181 -1.13409 10.5665
lowerneck 1.55586 18.707 20.2322
upperneck 35.3758 24.6349 -6.4802
head 15.8982 11.5166 -2.37923
rclavicle 2.82274e-014 -1.74931e-014
rhumerus -52.5236 12.0736 -69.3366
rradius 35.6276
rwrist 8.40893
rhand -6.19922 -15.6554
rfingers 7.12502
rthumb 19.6408 -44.6833
lclavicle 2.82274e-014 -1.74931e-014
lhumerus -57.29 -8.25681 98.8933
lradius 82.9134
lwrist -12.6658
lhand 5.86699 26.359
lfingers 7.12502
lthumb 31.1966 53.7229
rfemur -55.396 4.35119 10.7057
rtibia 47.141
rfoot -17.413 -16.4936
rtoes 0.0534535
lfemur -37.1977 -11.4183 -26.0993
ltibia 30.0008
lfoot -17.1282 12.5983
ltoes -14.3843
